<svg width="159" height="107" viewBox="0 0 159 107" fill="none" xmlns="http://www.w3.org/2000/svg">
<path fill-rule="evenodd" clip-rule="evenodd" d="M51 31V9L73.5 21.5V26.5L79.5 21.5V0L91.5 11V16L105 9V30L123 41V76.5H145V78H110V47L106 44.5V78H103V43L96.5 39.5V78H94V35L103 39.5V12.5L91.5 19.5V78H85V9L82.5 6V78H79.5V25.5L67 37.5V78H55.5V14.5L53 12.5V78H51V32.3838L40.5 42.4273V78V79H39.5H16V77H38.5V42V41.5727L38.8088 41.2774L50.3088 30.2774L51 31Z" fill="#035397"/>
<path d="M5.536 101.144C4.576 101.144 3.688 100.936 2.872 100.52C2.056 100.104 1.392 99.512 0.88 98.744L1.936 97.544C2.864 98.92 4.072 99.608 5.56 99.608C7.64 99.608 8.68 98.376 8.68 95.912V85.736H2.536V84.2H10.432V95.84C10.432 97.6 10.016 98.928 9.184 99.824C8.368 100.704 7.152 101.144 5.536 101.144ZM29.5439 96.512H20.1839L18.1679 101H16.3199L23.9999 84.2H25.7519L33.4319 101H31.5599L29.5439 96.512ZM28.8959 95.072L24.8639 86.048L20.8319 95.072H28.8959ZM51.283 101L47.443 95.6C47.011 95.648 46.563 95.672 46.099 95.672H41.587V101H39.811V84.2H46.099C48.243 84.2 49.923 84.712 51.139 85.736C52.355 86.76 52.963 88.168 52.963 89.96C52.963 91.272 52.627 92.384 51.955 93.296C51.299 94.192 50.355 94.84 49.123 95.24L53.227 101H51.283ZM46.051 94.16C47.715 94.16 48.987 93.792 49.867 93.056C50.747 92.32 51.187 91.288 51.187 89.96C51.187 88.6 50.747 87.56 49.867 86.84C48.987 86.104 47.715 85.736 46.051 85.736H41.587V94.16H46.051ZM65.9627 93.104L62.5307 96.584V101H60.7547V84.2H62.5307V94.352L72.3948 84.2H74.4347L67.1627 91.808L74.9388 101H72.8268L65.9627 93.104ZM86.0523 95.192V101H84.3003V95.192L77.5803 84.2H79.4763L85.2363 93.632L90.9963 84.2H92.7723L86.0523 95.192ZM112.815 84.2V101H111.351L100.551 87.368V101H98.7751V84.2H100.239L111.063 97.832V84.2H112.815ZM138.548 101.144C136.372 101.144 134.676 100.52 133.46 99.272C132.244 98.024 131.636 96.208 131.636 93.824V84.2H133.412V93.752C133.412 95.704 133.852 97.16 134.732 98.12C135.612 99.08 136.884 99.56 138.548 99.56C140.228 99.56 141.508 99.08 142.388 98.12C143.268 97.16 143.708 95.704 143.708 93.752V84.2H145.436V93.824C145.436 96.208 144.828 98.024 143.612 99.272C142.412 100.52 140.724 101.144 138.548 101.144ZM154.388 84.2H156.164V101H154.388V84.2Z" fill="#035397"/>
</svg>
